# xmcd
#
# Track frame offsets:
#	150
#	17569
#	34609
#	53461
#	75277
#	97753
#	117417
#	136868
#	154624
#	174380
#	191951
#	208254
#	227408
#	247142
#
# Disc length: 3574 seconds
#
# Revision: 1
# Processed by: cddbd v1.5.2PL0 Copyright (c) Steve Scherf et al.
# Submitted via: EasyCDDAExtractor 15.3.0.1
#
DISCID=a60df40e
DTITLE=Milly Quezada - Mis Favoritas
DYEAR=2010
DGENRE=Latin
TTITLE0=En Tus Manos
TTITLE1=Para Darte Mi Vida (Duo Con Elvis Crespo)
TTITLE2=Me Quede En El Aire
TTITLE3=Me Duele El Alma (Version Salsa)
TTITLE4=Entre Tu Cuerpo Y El Mio
TTITLE5=Porque Me Amaste (Because You Loved Me)
TTITLE6=Pideme (Duo Con Fernando Villalona)
TTITLE7=Fichas Blancas
TTITLE8=Amole, Amole
TTITLE9=Mesita De Noche
TTITLE10=Infiel
TTITLE11=Quizas
TTITLE12=Burbujas De Amor
TTITLE13=Vive
EXTD=
EXTT0=
EXTT1=
EXTT2=
EXTT3=
EXTT4=
EXTT5=
EXTT6=
EXTT7=
EXTT8=
EXTT9=
EXTT10=
EXTT11=
EXTT12=
EXTT13=
PLAYORDER=
